<svg width="48" height="48" viewBox="0 0 48 48" fill="none" xmlns="http://www.w3.org/2000/svg">
<path d="M24 0C37.2548 0 48 10.7452 48 24C48 37.2548 37.2548 48 24 48C10.7452 48 0 37.2548 0 24C0 10.7452 10.7452 0 24 0ZM12.9082 33.4736H17.5889V19.4111H12.9082V33.4736ZM29.0791 19.0811C26.5942 19.0811 25.4815 20.4458 24.8604 21.4033V19.4111H20.1797C20.2412 20.7279 20.1799 33.4203 20.1797 33.4736H24.8604V25.6201C24.8604 25.1998 24.8909 24.7804 25.0146 24.4795C25.3529 23.6399 26.1231 22.7705 27.416 22.7705C29.1103 22.7705 29.7881 24.0605 29.7881 25.9502V33.4736H34.4678V25.4102C34.4677 21.0909 32.1589 19.0811 29.0791 19.0811ZM15.2793 12.6318C13.6783 12.6319 12.6319 13.6818 12.6318 15.0605C12.6318 16.4108 13.6474 17.4912 15.2188 17.4912H15.249C16.8807 17.491 17.8965 16.4107 17.8965 15.0605C17.866 13.6818 16.8804 12.6318 15.2793 12.6318Z" fill="white"/>
</svg>
