<svg width="48" height="48" viewBox="0 0 48 48" fill="none" xmlns="http://www.w3.org/2000/svg">
<path d="M24 0C37.2548 0 48 10.7452 48 24C48 37.2548 37.2548 48 24 48C10.7452 48 0 37.2548 0 24C0 10.7452 10.7452 0 24 0ZM25.0273 28.3477C25.0273 30.2955 23.4721 31.8955 21.5361 31.8955C19.6003 31.8954 18.0449 30.2955 18.0449 28.3477C18.045 26.4347 19.5659 24.8693 21.4326 24.7998V20.6953C17.3188 20.7648 14.0001 24.1391 14 28.3477C14 32.5912 17.3883 36 21.5713 36C25.754 35.9998 29.1416 32.5562 29.1416 28.3477V19.9648C30.6627 21.0779 32.5295 21.7396 34.5 21.7744V17.6699C31.4579 17.5656 29.0723 15.0609 29.0723 12H25.0273V28.3477Z" fill="white"/>
</svg>
